<?xml version="1.0" standalone="no"?>
<!DOCTYPE svg PUBLIC "-//W3C//DTD SVG 20010904//EN"
 "http://www.w3.org/TR/2001/REC-SVG-20010904/DTD/svg10.dtd">
<svg version="1.0" xmlns="http://www.w3.org/2000/svg"
 width="433.000000pt" height="433.000000pt" viewBox="0 0 433.000000 433.000000"
 preserveAspectRatio="xMidYMid meet">

<g transform="translate(0.000000,433.000000) scale(0.100000,-0.100000)"
fill="#000000" stroke="none">
<path d="M2085 4068 c-52 -20 -102 -55 -137 -100 -44 -55 -209 -294 -416 -605
l-162 -242 -57 -17 c-639 -185 -941 -277 -978 -298 -121 -72 -173 -238 -113
-366 13 -27 164 -232 336 -455 l313 -405 -16 -519 c-18 -565 -18 -568 36 -652
52 -82 141 -129 242 -129 58 0 114 18 556 175 l492 176 490 -176 c450 -160
496 -175 557 -175 105 0 211 62 256 148 37 72 38 97 21 633 l-16 519 313 405
c172 223 323 427 335 453 16 34 23 66 23 113 0 116 -46 202 -135 255 -36 21
-402 132 -978 298 l-57 17 -142 212 c-198 298 -411 605 -451 652 -52 60 -116
89 -207 92 -41 1 -88 -3 -105 -9z m159 -210 c29 -26 134 -177 418 -601 113
-170 209 -302 221 -308 12 -5 247 -75 522 -155 275 -80 509 -151 521 -159 31
-20 50 -72 37 -104 -5 -15 -154 -214 -330 -442 -176 -228 -325 -424 -331 -436
-9 -16 -8 -155 5 -566 18 -611 21 -583 -52 -607 -33 -11 -61 -2 -540 169 -278
100 -518 181 -534 181 -16 0 -257 -81 -536 -181 -369 -132 -513 -179 -531
-175 -14 4 -37 18 -50 31 -30 30 -29 13 -9 653 12 362 13 478 4 495 -7 12
-155 208 -331 435 -175 227 -324 424 -330 437 -15 33 0 83 32 106 14 10 250
83 525 163 275 80 510 150 522 155 13 6 96 121 194 268 283 425 409 606 440
636 38 35 96 37 133 5z"/>
<path d="M1678 2371 c-131 -83 -111 -285 34 -346 166 -69 326 109 247 273 -32
65 -94 102 -174 102 -50 0 -69 -5 -107 -29z"/>
<path d="M2468 2371 c-132 -84 -112 -284 34 -346 165 -68 326 109 247 273 -32
65 -94 102 -174 102 -50 0 -69 -5 -107 -29z"/>
<path d="M1740 1697 c-14 -7 -33 -29 -43 -49 -16 -33 -17 -40 -3 -71 18 -44
41 -59 143 -96 228 -84 480 -81 710 8 94 37 123 65 123 120 0 48 -22 78 -68
91 -32 10 -44 8 -96 -15 -195 -86 -456 -87 -651 0 -65 28 -80 30 -115 12z"/>
</g>
</svg>
